<svg height="432pt" viewBox="0 -9 432 432" width="432pt" xmlns="http://www.w3.org/2000/svg">
<path d="m94 7c0-3.867188-3.132812-7-7-7s-7 3.132812-7 7v44.925781h14zm0 0"/>
<path d="m356 7c0-3.867188-3.132812-7-7-7s-7 3.132812-7 7v44.925781h14zm0 0"/>
<path d="m35.359375 413.925781h361.28125c19.523437-.121093 35.300781-15.949219 35.359375-35.472656v-237.527344h-432v237.527344c.0585938 19.523437 15.835938 35.351563 35.359375 35.472656zm163.101563-235.441406c1.324218-1.601563 3.289062-2.539063 5.367187-2.558594h18.171875v-5.074219c0-3.867187 3.132812-7 7-7s7 3.132813 7 7v21c0 3.863282-3.132812 7-7 7s-7-3.136718-7-7v-1.925781h-9.800781l14.152343 79h82.5l14.148438-79h-9v1.925781c0 3.863282-3.132812 7-7 7s-7-3.136718-7-7v-21c0-3.867187 3.132812-7 7-7s7 3.132813 7 7v5.074219h17.375c2.085938.03125 4.050781.980469 5.371094 2.59375 1.332031 1.632813 1.882812 3.761719 1.515625 5.835938l-16.671875 92.648437c-.585938 3.367188-3.472656 5.847656-6.890625 5.921875h-39.699219v46.828125c0 25.128906 20.371094 45.5 45.5 45.5s45.5-20.371094 45.5-45.5v-67.773437c-13.804688-3.238281-22.976562-16.328125-21.308594-30.40625 1.671875-14.082031 13.652344-24.660157 27.828125-24.578125 13.863281.039062 25.578125 10.289062 27.460938 24.023437 1.882812 13.734375-6.640625 26.757813-19.980469 30.527344v68.207031c0 32.859375-26.640625 59.5-59.5 59.5s-59.5-26.640625-59.5-59.5v-46.828125h-40.5c-3.417969-.078125-6.304688-2.5625-6.890625-5.933593l-16.667969-92.667969c-.367187-2.074219.1875-4.203125 1.519532-5.839844zm-82.5625 17.441406h.066406c46.527344 1 84.347656 38.054688 84.3125 84.582031.054687 22.398438-8.816406 43.894532-24.652344 59.738282-15.832031 15.839844-37.328125 24.722656-59.726562 24.679687h-.0625c-46.527344 0-84.351563-38.039062-84.316407-84.566406.082031-46.578125 37.800781-84.324219 84.378907-84.433594zm0 0"/><path d="m115.847656 350.925781h.050782c38.84375-.042969 70.324218-31.511719 70.378906-70.351562.03125-38.808594-31.519532-69.648438-70.324219-70.648438h-.054687c-38.933594-.015625-70.511719 31.539063-70.523438 70.472657-.015625 38.9375 31.535156 70.511718 70.472656 70.527343zm-45.941406-81.5625c.007812-1.777343.75-3.46875 2.054688-4.671875 1.34375-1.230468 3.128906-1.867187 4.945312-1.765625l20.703125-.265625.015625-20.71875c0-3.867187 3.132812-7.003906 7-7.015625l22.609375-.101562c1.851563-.027344 3.632813.691406 4.949219 1.992187 1.316406 1.300782 2.054687 3.074219 2.050781 4.925782l-.015625 20.679687 20.695312.011719c1.855469-.003906 3.636719.734375 4.953126 2.046875 1.3125 1.3125 2.046874 3.09375 2.046874 4.953125l-.015624 22.554687c-.003907 1.847657-.746094 3.621094-2.058594 4.921875-1.316406 1.304688-3.09375 2.027344-4.941406 2.015625l-20.703126.039063-.011718 20.722656c0 1.890625-.738282 3.710938-2.054688 5.070312-1.304687 1.34375-3.082031 2.125-4.953125 2.167969l-22.609375-.128906c-3.878906-.023437-7.007812-3.179687-7-7.058594l.015625-20.722656-20.695312-.027344c-3.867188-.003906-7.003907-3.144531-7-7.011719zm0 0"/><path d="m386.480469 234.835938c0-7.644532-6.199219-13.84375-13.84375-13.84375-7.644531.003906-13.839844 6.199218-13.839844 13.84375 0 7.644531 6.199219 13.839843 13.84375 13.839843 7.640625-.007812 13.832031-6.199219 13.839844-13.839843zm0 0"/><path d="m111.585938 292.023438-.015626 20.667968 8.609376.007813.015624-20.703125c-.003906-3.878906 3.117188-7.039063 7-7.078125l20.699219.058593.003907-8.585937h-20.695313c-3.863281 0-7-3.136719-7-7l.019531-20.695313h-8.609375l-.015625 20.964844c.015625 3.917969-3.085937 7.136719-7 7.265625h.003906l-20.703124-.285156-.003907 8.472656 20.699219-.050781c1.851562-.007812 3.628906.722656 4.941406 2.03125 1.3125 1.304688 2.050782 3.078125 2.050782 4.929688zm0 0"/><path d="m432 86.964844c-.089844-19.441406-15.921875-35.128906-35.359375-35.039063h-40.640625v30.5c0 3.863281-3.132812 7-7 7s-7-3.136719-7-7v-30.5h-248v30.5c0 3.863281-3.132812 7-7 7s-7-3.136719-7-7v-30.5h-44.640625c-19.4375-.089843-35.2695312 15.597657-35.359375 35.039063v39.960937h432zm0 0"/>
</svg>