<?xml version="1.0" encoding="iso-8859-1"?>
<!-- Generator: Adobe Illustrator 19.0.0, SVG Export Plug-In . SVG Version: 6.00 Build 0)  -->
<svg xmlns="http://www.w3.org/2000/svg" xmlns:xlink="http://www.w3.org/1999/xlink" version="1.1" id="Layer_1" x="0px" y="0px" viewBox="0 0 512 512" style="enable-background:new 0 0 512 512;" xml:space="preserve" width="512" height="512">
<g>
	<path d="M196,392c16.542,0,30-13.458,30-30s-13.458-30-30-30s-30,13.458-30,30S179.458,392,196,392z M196,352   c5.514,0,10,4.486,10,10s-4.486,10-10,10s-10-4.486-10-10S190.486,352,196,352z"/>
	<path d="M502,32h-30v-2c0-16.542-13.458-30-30-30s-30,13.458-30,30v2H100v-2c0-16.542-13.458-30-30-30S40,13.458,40,30v2H10   C4.477,32,0,36.478,0,42v460c0,5.522,4.477,10,10,10h492c5.523,0,10-4.478,10-10V42C512,36.478,507.523,32,502,32z M432,30   c0-5.514,4.486-10,10-10s10,4.486,10,10v52c0,5.514-4.486,10-10,10s-10-4.486-10-10V30z M60,30c0-5.514,4.486-10,10-10   s10,4.486,10,10v52c0,5.514-4.486,10-10,10s-10-4.486-10-10V30z M492,492h-47.857L492,444.143V492z M430,477.857V430h47.857   L430,477.857z M492,410h-72c-5.523,0-10,4.478-10,10v72H20V172h472V410z M492,152H20V52h20v30c0,16.542,13.458,30,30,30   s30-13.458,30-30V52h312v30c0,16.542,13.458,30,30,30s30-13.458,30-30V52h20V152z"/>
	<path d="M132,92c-5.51,0-10,4.49-10,10s4.49,10,10,10c5.51,0,10-4.49,10-10S137.51,92,132,92z"/>
	<path d="M342,92H172c-5.51,0-10,4.49-10,10s4.49,10,10,10h170c5.51,0,10-4.49,10-10S347.51,92,342,92z"/>
	<path d="M256,432c5.52,0,10-4.48,10-10c0-5.521-4.48-10-10-10s-10,4.479-10,10C246,427.52,250.48,432,256,432z"/>
	<path d="M136,432c5.52,0,10-4.48,10-10c0-5.521-4.48-10-10-10s-10,4.479-10,10C126,427.52,130.48,432,136,432z"/>
	<path d="M76,432c5.52,0,10-4.48,10-10c0-5.521-4.48-10-10-10s-10,4.479-10,10C66,427.52,70.48,432,76,432z"/>
	<path d="M376,432c5.52,0,10-4.48,10-10c0-5.521-4.48-10-10-10s-10,4.479-10,10C366,427.52,370.48,432,376,432z"/>
	<path d="M196,412c-5.52,0-10,4.479-10,10c0,5.52,4.48,10,10,10s10-4.48,10-10C206,416.479,201.52,412,196,412z"/>
	<path d="M316,432c5.52,0,10-4.48,10-10c0-5.521-4.48-10-10-10s-10,4.479-10,10C306,427.52,310.48,432,316,432z"/>
	<path d="M76,372c5.52,0,10-4.48,10-10c0-5.521-4.48-10-10-10s-10,4.479-10,10C66,367.52,70.48,372,76,372z"/>
	<path d="M136,372c5.52,0,10-4.48,10-10c0-5.521-4.48-10-10-10s-10,4.479-10,10C126,367.52,130.48,372,136,372z"/>
	<path d="M436,372c5.52,0,10-4.48,10-10c0-5.521-4.48-10-10-10s-10,4.479-10,10C426,367.52,430.48,372,436,372z"/>
	<path d="M376,372c5.52,0,10-4.48,10-10c0-5.521-4.48-10-10-10s-10,4.479-10,10C366,367.52,370.48,372,376,372z"/>
	<path d="M316,372c5.52,0,10-4.48,10-10c0-5.521-4.48-10-10-10s-10,4.479-10,10C306,367.52,310.48,372,316,372z"/>
	<path d="M256,372c5.52,0,10-4.48,10-10c0-5.521-4.48-10-10-10s-10,4.479-10,10C246,367.52,250.48,372,256,372z"/>
	<path d="M376,312c5.52,0,10-4.48,10-10c0-5.521-4.48-10-10-10s-10,4.479-10,10C366,307.52,370.48,312,376,312z"/>
	<path d="M316,312c5.52,0,10-4.48,10-10c0-5.521-4.48-10-10-10s-10,4.479-10,10C306,307.52,310.48,312,316,312z"/>
	<path d="M436,312c5.52,0,10-4.48,10-10c0-5.521-4.48-10-10-10s-10,4.479-10,10C426,307.52,430.48,312,436,312z"/>
	<path d="M256,312c5.52,0,10-4.48,10-10c0-5.521-4.48-10-10-10s-10,4.479-10,10C246,307.52,250.48,312,256,312z"/>
	<path d="M136,312c5.52,0,10-4.48,10-10c0-5.521-4.48-10-10-10s-10,4.479-10,10C126,307.52,130.48,312,136,312z"/>
	<path d="M76,312c5.52,0,10-4.48,10-10c0-5.521-4.48-10-10-10s-10,4.479-10,10C66,307.52,70.48,312,76,312z"/>
	<path d="M196,312c5.52,0,10-4.48,10-10c0-5.521-4.48-10-10-10s-10,4.479-10,10C186,307.52,190.48,312,196,312z"/>
	<path d="M376,252c5.52,0,10-4.48,10-10c0-5.521-4.48-10-10-10s-10,4.479-10,10C366,247.52,370.48,252,376,252z"/>
	<path d="M256,252c5.52,0,10-4.48,10-10c0-5.521-4.48-10-10-10s-10,4.479-10,10C246,247.52,250.48,252,256,252z"/>
	<path d="M316,252c5.52,0,10-4.48,10-10c0-5.521-4.48-10-10-10s-10,4.479-10,10C306,247.52,310.48,252,316,252z"/>
	<path d="M196,252c5.52,0,10-4.48,10-10c0-5.521-4.48-10-10-10s-10,4.479-10,10C186,247.52,190.48,252,196,252z"/>
	<path d="M436,252c5.52,0,10-4.48,10-10c0-5.521-4.48-10-10-10s-10,4.479-10,10C426,247.52,430.48,252,436,252z"/>
	<path d="M382,92c-5.51,0-10,4.49-10,10s4.49,10,10,10c5.51,0,10-4.49,10-10S387.51,92,382,92z"/>
</g>















</svg>
