<svg height="512pt" viewBox="-6 0 512 512.00001" width="512pt" xmlns="http://www.w3.org/2000/svg"><path d="m250.351562 307.5c0-17.832031-14.457031-32.289062-32.289062-32.289062h-21.527344c-17.832031 0-32.289062 14.457031-32.289062 32.289062v76.871094c-23.023438 5.945312-36.867188 29.425781-30.921875 52.449218 5.941406 23.023438 29.425781 36.867188 52.449219 30.921876 23.019531-5.945313 36.863281-29.425782 30.921874-52.449219-3.917968-15.164063-15.757812-27.007813-30.921874-30.921875v-76.871094c0-5.945312 4.816406-10.761719 10.761718-10.761719h21.527344c5.945312 0 10.761719 4.816407 10.761719 10.761719v107.632812c0 17.832032 14.457031 32.289063 32.289062 32.289063h32.289063c17.835937 0 32.292968-14.457031 32.292968-32.289063v-76.417968c25.039063-5.152344 43.019532-27.175782 43.050782-52.742188v-64.578125c0-5.945312-4.820313-10.761719-10.761719-10.761719h-32.289063v21.523438h21.523438v53.816406c0 17.832032-14.457031 32.289063-32.289062 32.289063-17.832032 0-32.289063-14.457031-32.289063-32.289063v-53.816406h21.527344v-21.523438h-32.289063c-5.945312 0-10.765625 4.816407-10.765625 10.761719v64.578125c.035157 25.5625 18.015625 47.589844 43.054688 52.742188v76.417968c0 5.941407-4.820313 10.761719-10.761719 10.761719h-32.292969c-5.941406 0-10.761719-4.820312-10.761719-10.761719zm-53.816406 118.394531c0 11.890625-9.636718 21.527344-21.527344 21.527344-11.886718 0-21.527343-9.636719-21.527343-21.527344 0-11.886719 9.640625-21.527343 21.527343-21.527343 11.890626 0 21.527344 9.640624 21.527344 21.527343zm0 0"/><path d="m496.710938 196.347656-63.386719-51.308594v-85.09375c0-5.941406-4.816407-10.761718-10.761719-10.761718h-64.578125c-5.945313 0-10.765625 4.820312-10.765625 10.761718v15.390626l-90.097656-72.941407c-3.949219-3.191406-9.589844-3.191406-13.539063 0l-239.589843 193.953125c-4.621094 3.738282-5.335938 10.515625-1.59375 15.136719.003906.007813.007812.011719.011718.019531l27.125 33.363282c3.742188 4.605468 10.507813 5.308593 15.121094 1.574218l22.722656-18.394531v262.425781h-32.292968v21.527344h430.527343v-21.527344h-32.289062v-262.425781l22.722656 18.394531c4.613281 3.734375 11.375 3.03125 15.121094-1.574218l27.125-33.363282c3.746093-4.613281 3.046875-11.394531-1.566407-15.140625-.003906-.003906-.011718-.011719-.015624-.015625zm-127.964844-125.636718h43.050781v56.894531l-43.050781-34.84375zm43.054687 419.761718h-322.898437v-279.839844l161.449218-130.710937 161.449219 130.710937zm49.445313-267.515625-204.125-165.25c-3.949219-3.195312-9.589844-3.195312-13.539063 0l-204.125 165.25-13.539062-16.632812 224.433593-181.714844 224.433594 181.714844zm0 0"/></svg>